<?xml version="1.0" encoding="utf-8"?>
<!-- Generator: Adobe Illustrator 16.2.1, SVG Export Plug-In . SVG Version: 6.00 Build 0)  -->
<!DOCTYPE svg PUBLIC "-//W3C//DTD SVG 1.1//EN" "http://www.w3.org/Graphics/SVG/1.1/DTD/svg11.dtd">
<svg version="1.1" id="Layer_1" xmlns="http://www.w3.org/2000/svg" xmlns:xlink="http://www.w3.org/1999/xlink" x="0px" y="0px"
	 width="25.2px" height="18.9px" viewBox="0 0 25.2 18.9" style="enable-background:new 0 0 25.2 18.9;" xml:space="preserve">
<style type="text/css">
<![CDATA[
	.st0{fill:#4D4C4C;}
]]>
</style>
<g>
	<rect x="5.4" y="5" transform="matrix(0.9659 -0.2588 0.2588 0.9659 -2.0315 3.5805)" class="st0" width="14.3" height="9.1"/>
	<path class="st0" d="M22.8,4.3L21.7,0L0,5.8l1.1,4.3c1.2-0.3,2.5,0.4,2.8,1.6c0.3,1.2-0.4,2.5-1.6,2.8l1.2,4.3L25.2,13L24,8.7
		c-1.2,0.3-2.5-0.4-2.8-1.6C20.9,5.9,21.6,4.6,22.8,4.3z M21.4,12.5l-15,4l-2.7-10l15-4L21.4,12.5z"/>
</g>
</svg>
