<?xml version="1.0" encoding="utf-8"?>
<!-- Generator: Adobe Illustrator 16.2.1, SVG Export Plug-In . SVG Version: 6.00 Build 0)  -->
<!DOCTYPE svg PUBLIC "-//W3C//DTD SVG 1.1//EN" "http://www.w3.org/Graphics/SVG/1.1/DTD/svg11.dtd">
<svg version="1.1" id="Layer_1" xmlns="http://www.w3.org/2000/svg" xmlns:xlink="http://www.w3.org/1999/xlink" x="0px" y="0px"
	 width="15.5px" height="28.6px" viewBox="0 0 15.5 28.6" style="enable-background:new 0 0 15.5 28.6;" xml:space="preserve">
<style type="text/css">
<![CDATA[
	.st0{fill:#4D4C4C;}
]]>
</style>
<path class="st0" d="M9.2,28.6V25c2.1-0.4,3.7-1.1,4.7-2.3s1.6-2.5,1.6-4.1c0-1.6-0.4-2.9-1.3-4c-0.9-1.1-2.4-2-4.5-2.7
	c-1.5-0.5-2.7-1-3.3-1.5c-0.7-0.5-1-1-1-1.5c0-0.5,0.2-1,0.7-1.4C6.5,7.2,7.3,7,8.4,6.9c1.4,0,2.5,0.2,3.3,0.5
	c0.8,0.3,1.5,0.5,1.9,0.8l1-4c-0.6-0.3-1.3-0.5-2.1-0.8c-0.8-0.2-1.8-0.3-2.9-0.4V0H6.2v3.3C4.2,3.7,2.8,4.4,1.7,5.5
	c-1,1.1-1.5,2.4-1.5,4c0,1.7,0.6,3,1.7,4c1.1,1,2.6,1.8,4.4,2.4c1.3,0.4,2.3,0.9,3,1.4c0.7,0.5,1,1.1,1,1.7c0,0.7-0.4,1.2-1.1,1.6
	c-0.7,0.4-1.5,0.6-2.6,0.6c-1.1,0-2.2-0.2-3.1-0.5c-1-0.3-1.8-0.7-2.5-1.1l-1,4.1c0.6,0.4,1.4,0.7,2.5,1c1,0.3,2.1,0.4,3.3,0.5v3.3
	L9.2,28.6L9.2,28.6z"/>
</svg>
